<svg width="530" height="530" viewBox="0 0 530 530" fill="none" xmlns="http://www.w3.org/2000/svg">
<path d="M265 0C118.716 0 0 118.716 0 265C0 411.284 118.716 530 265 530C411.284 530 530 411.284 530 265C530 118.716 411.284 0 265 0ZM372.603 389.913C368.115 389.913 365.337 388.524 361.169 386.067C294.492 345.889 216.915 344.179 140.3 359.887C136.133 360.956 130.683 362.665 127.585 362.665C117.22 362.665 110.702 354.438 110.702 345.782C110.702 334.776 117.22 329.54 125.234 327.831C212.748 308.49 302.186 310.2 378.48 355.827C384.998 359.994 388.845 363.734 388.845 373.458C388.845 383.181 381.258 389.913 372.603 389.913ZM401.347 319.817C395.79 319.817 392.05 317.359 388.204 315.329C321.419 275.792 221.831 259.871 133.248 283.913C128.119 285.302 125.341 286.692 120.532 286.692C109.099 286.692 99.8024 277.395 99.8024 265.962C99.8024 254.528 105.359 246.942 116.365 243.843C146.071 235.508 176.417 229.311 220.869 229.311C290.218 229.311 357.216 246.514 410.002 277.929C418.657 283.058 422.077 289.683 422.077 298.98C421.97 310.52 412.994 319.817 401.347 319.817ZM434.472 238.393C428.915 238.393 425.496 237.004 420.688 234.226C344.607 188.813 208.581 177.913 120.532 202.49C116.685 203.558 111.877 205.268 106.748 205.268C92.6432 205.268 81.8508 194.262 81.8508 180.05C81.8508 165.518 90.8266 157.29 100.444 154.512C138.056 143.506 180.157 138.27 225.998 138.27C304.002 138.27 385.746 154.512 445.478 189.347C453.813 194.155 459.262 200.78 459.262 213.496C459.262 228.028 447.508 238.393 434.472 238.393Z" fill="#1DB954"/>
</svg>
